<svg width="24" height="24" fill="none" viewBox="0 0 24 24" data-fpl-icon-size="24"><path fill="var(--fpl-icon-color, var(--color-icon))" fill-rule="evenodd" d="m11.323 6.59-4.732 4.733a.25.25 0 0 0 0 .354l4.732 4.732a.25.25 0 0 0 .354 0l4.732-4.732a.25.25 0 0 0 0-.354l-4.732-4.732a.25.25 0 0 0-.354 0m-.707-.706-4.732 4.732a1.25 1.25 0 0 0 0 1.768l4.732 4.732a1.25 1.25 0 0 0 1.768 0l4.732-4.732a1.25 1.25 0 0 0 0-1.768l-4.732-4.732a1.25 1.25 0 0 0-1.768 0M11 9.5a.5.5 0 1 1 1 0V11h1.5a.5.5 0 0 1 0 1H12v1.5a.5.5 0 1 1-1 0V12H9.5a.5.5 0 1 1 0-1H11z" clip-rule="evenodd"></path></svg>