<svg width="24" height="24" fill="none" viewBox="0 0 24 24" data-fpl-icon-size="24"><path fill="var(--fpl-icon-color, var(--color-icon))" fill-rule="evenodd" d="M8 9a1 1 0 1 1 0-2 1 1 0 0 1 0 2m1 .732A2 2 0 0 0 9.732 9h4.536c.175.304.428.557.732.732v4.536a2 2 0 0 0-.732.732H9.732A2 2 0 0 0 9 14.268zM16 14a2 2 0 1 1-2 2h-4a2 2 0 1 1-2-2v-4a2 2 0 1 1 2-2h4a2 2 0 1 1 2 2zm0-5a1 1 0 1 0 0-2 1 1 0 0 0 0 2m0 6a1 1 0 1 0 0 2 1 1 0 0 0 0-2m-8 0a1 1 0 1 1 0 2 1 1 0 0 1 0-2" clip-rule="evenodd"></path></svg>