<svg width="24" height="24" fill="none" viewBox="0 0 24 24" class="stack_panel_v4--inactiveLabel--V-fMA raw_components--iconInsideBorderFocusWithin--VeKTS" aria-hidden="true" data-fpl-icon-size="24"><path fill="var(--fpl-icon-color, var(--color-icon))" fill-rule="evenodd" d="M7.5 7A1.5 1.5 0 0 1 9 8.5v7A1.5 1.5 0 0 1 7.5 17a.5.5 0 0 1-.1-.99l.2-.02a.5.5 0 0 0 .4-.49v-7a.5.5 0 0 0-.4-.49l-.2-.02A.5.5 0 0 1 7.5 7m9 0a.5.5 0 0 1 .1.99l-.2.02a.5.5 0 0 0-.4.49v7a.5.5 0 0 0 .4.49l.2.02a.5.5 0 0 1-.1.99 1.5 1.5 0 0 1-1.5-1.5v-7A1.5 1.5 0 0 1 16.5 7M12 11a1 1 0 1 1 0 2 1 1 0 0 1 0-2" clip-rule="evenodd"></path></svg>