<svg width="24" height="24" fill="none" viewBox="0 0 24 24" data-fpl-icon-size="24"><path fill="var(--fpl-icon-color, var(--color-icon))" fill-rule="evenodd" d="M8 6.5a.5.5 0 0 0-1 0V7h-.5a.5.5 0 0 0 0 1H7v3h-.5a.5.5 0 0 0 0 1H7v3h-.5a.5.5 0 0 0 0 1H7v.5a.5.5 0 0 0 1 0V16h3v.5a.5.5 0 0 0 1 0V16h3v.5a.5.5 0 0 0 1 0V16h.5a.5.5 0 0 0 0-1H16v-3h.5a.5.5 0 0 0 0-1H16V8h.5a.5.5 0 0 0 0-1H16v-.5a.5.5 0 0 0-1 0V7h-3v-.5a.5.5 0 0 0-1 0V7H8zm7 8.5v-3h-3v3zm-4 0v-3H8v3zm-3-4V8h3v3zm4 0V8h3v3z" clip-rule="evenodd"></path></svg>