<svg width="24" height="24" fill="none" viewBox="0 0 24 24" data-fpl-icon-size="24"><path fill="var(--fpl-icon-color, var(--color-icon))" d="M5.886 4.71c.228-.176.523-.248.81-.19l5.98 1.196.262.057A6 6 0 0 1 17.5 11.6v.487l.707.707a1 1 0 0 1 0 1.414l-4 4a1 1 0 0 1-1.414 0l-.707-.707h-.487a6 6 0 0 1-5.825-4.563l-.058-.26-1.196-5.98a1 1 0 0 1 .273-.904l1-1zm.468.936 3.767 3.768a2.5 2.5 0 1 1-.707.707L5.647 6.353 5.5 6.5l1.196 5.98a5 5 0 0 0 4.681 4.015l.222.005h.901l1 1 4-4-1-1v-.902a5 5 0 0 0-3.803-4.854l-.216-.048L6.5 5.5zM11.5 10a1.5 1.5 0 1 0 0 3 1.5 1.5 0 0 0 0-3"></path></svg>